<svg width="120" height="120" viewBox="0 0 120 120" fill="none" xmlns="http://www.w3.org/2000/svg">
<path d="M53.8931 81.3359C52.035 82.9753 50.5377 85.2378 49.5229 87.614C47.3186 87.9199 45.0391 88.004 43.468 88.004C41.7036 88.004 40.7887 87.8562 40.1009 87.5122C39.4154 87.1692 38.8318 86.5711 37.8793 85.3217L37.8776 85.3195C35.887 82.7234 33.6823 80.8547 30.9362 80.0778L30.8538 80.0544L30.7685 80.0455C29.8767 79.9517 28.8949 80.2257 28.3767 80.9857C28.1001 81.3916 27.9941 81.8996 28.1316 82.4166C28.2629 82.9096 28.588 83.3145 28.9903 83.6304L29.0119 83.6474L29.0344 83.6632C30.7639 84.8741 31.7106 86.4762 32.4252 88.2071C32.7094 88.8957 32.9484 89.582 33.1907 90.2778C33.2575 90.4696 33.3246 90.6621 33.3929 90.8556C33.7015 91.7298 34.0348 92.6194 34.4678 93.4225L34.468 93.4229C36.1011 96.4493 39.4158 97.984 42.968 97.984H42.9728H42.9777H42.9827H42.9877H42.9927H42.9978H43.003H43.0082H43.0135H43.0188H43.0242H43.0296H43.0351H43.0407H43.0463H43.0519H43.0576H43.0634H43.0692H43.0751H43.081H43.0869H43.093H43.099H43.1052H43.1113H43.1176H43.1238H43.1302H43.1366H43.143H43.1495H43.156H43.1626H43.1692H43.1759H43.1826H43.1894H43.1963H43.2031H43.2101H43.2171H43.2241H43.2312H43.2383H43.2455H43.2527H43.26H43.2673H43.2747H43.2821H43.2895H43.297H43.3046H43.3122H43.3199H43.3276H43.3353H43.3431H43.3509H43.3588H43.3667H43.3747H43.3827H43.3908H43.3989H43.407H43.4152H43.4235H43.4318H43.4401H43.4485H43.4569H43.4654H43.4739H43.4824H43.491H43.4996H43.5083H43.517H43.5258H43.5346H43.5435H43.5523H43.5613H43.5702H43.5793H43.5883H43.5974H43.6066H43.6157H43.6249H43.6342H43.6435H43.6528H43.6622H43.6716H43.6811H43.6906H43.7001H43.7097H43.7193H43.729H43.7387H43.7484H43.7582H43.768H43.7778H43.7877H43.7977H43.8076H43.8176H43.8276H43.8377H43.8478H43.858H43.8682H43.8784H43.8886H43.8989H43.9092H43.9196H43.93H43.9404H43.9509H43.9614H43.9719H43.9825H43.9931H44.0037H44.0144H44.0251H44.0359H44.0466H44.0574H44.0683H44.0792H44.0901H44.101H44.112H44.123H44.134H44.1451H44.1562H44.1673H44.1785H44.1897H44.2009H44.2122H44.2235H44.2348H44.2461H44.2575H44.2689H44.2804H44.2918H44.3033H44.3149H44.3264H44.338H44.3496H44.3613H44.373H44.3847H44.3964H44.4082H44.4199H44.4318H44.4436H44.4555H44.4674H44.4793H44.4913H44.5032H44.5152H44.5273H44.5393H44.5514H44.5635H44.5757H44.5878H44.6H44.6122H44.6245H44.6367H44.649H44.6613H44.6737H44.686H44.6984H44.7108H44.7233H44.7357H44.7482H44.7607H44.7733H44.7858H44.7984H44.811H44.8236H44.8362H44.8489H44.8616H44.8743H44.887H44.8998H44.9125H44.9253H44.9382H44.951H44.9638H44.9767H44.9896H45.0025H45.0155H45.0284H45.0414H45.0544H45.0674H45.0805H45.0935H45.1066H45.1197H45.1328H45.1459H45.159H45.1722H45.1854H45.1986H45.2118H45.225H45.2383H45.2516H45.2648H45.2781H45.2915H45.3048H45.3181H45.3315H45.3449H45.3583H45.3717H45.3851H45.3986H45.412H45.4255H45.439H45.4525H45.466H45.4795H45.4931H45.5066H45.5202H45.5338H45.5474H45.561H45.5746H45.5883H45.6019H45.6156H45.6292H45.6429H45.6566H45.6703H45.6841H45.6978H45.7115H45.7253H45.7391H45.7528H45.7666H45.7804H45.7942H45.808H45.8219H45.8357H45.8495H45.8634H45.8773H45.8911H45.905H45.9189H45.9328H45.9467H45.9606H45.9746H45.9885H46.0024H46.0164H46.0303H46.0443H46.0583H46.0723H46.0862H46.1002H46.1142H46.1282H46.1422H46.1562H46.1703H46.1843H46.1983H46.2124H46.2264H46.2404H46.2545H46.2685H46.2826H46.2967H46.3107H46.3248H46.3389H46.353H46.367H46.3811H46.3952H46.4093H46.4234H46.4375H46.4516H46.4657H46.4798H46.4939H46.508H46.5221H46.5362H46.5503H46.5644H46.5786H46.5927H46.6068H46.6209H46.635H46.6491H46.6632H46.6773H46.6915H46.7056H46.7197H46.7338H46.7479H46.762H46.7761H46.7902H46.8043H46.8184H46.8325H46.8466H46.8607H46.8748H46.8889H46.903H46.917H46.9311H46.9452H46.9592H46.9733H46.9874H47.0014H47.0155H47.0295H47.0436H47.0576H47.0717H47.0857H47.0997H47.1137H47.1277H47.1417H47.1557H47.1697H47.1837H47.1977H47.2117H47.2256H47.2396H47.2536H47.2675H47.2814H47.2954H47.3093H47.3232H47.3371H47.351H47.3649H47.3788H47.3926H47.4065H47.4204H47.4342H47.448H47.4618H47.4757H47.4895H47.5033H47.517H47.5308H47.5446H47.5583H47.5721H47.5858H47.5995H47.6132H47.6269H47.6406H47.6543H47.6679H47.6816H47.6952H47.7088H47.7224H47.736H47.7496H47.7631H47.7767H47.7902H47.8038H47.8173H47.8308H47.8442H47.8577H47.8712H47.8846H47.898H47.9114H47.9248H47.9382H47.9516H47.9649H47.9782H47.9915H48V105.188C48 105.52 48.0164 105.833 48.0473 106.131C28.395 100.502 14 82.4552 14 61C14 35.0443 35.0443 14 61 14C86.9557 14 108 35.0443 108 61C108 80.9511 95.5468 97.9553 78 104.773V94.252C78 91.6277 77.1408 88.6425 75.7291 86.0253C74.7768 84.2596 73.5436 82.6074 72.0937 81.3303C78.9353 80.2718 84.1922 77.9625 87.8494 74.6402C91.9762 70.8912 93.98 65.9289 93.98 60.28C93.98 55.5228 92.0335 50.9701 88.7787 47.1311C89.3102 45.2163 89.8616 42.535 89.9795 39.9226C90.0441 38.4902 89.9803 37.0424 89.6925 35.7369C89.4059 34.4368 88.881 33.2055 87.9666 32.2924L87.6738 32H87.26C80.3972 32 75.9846 35.9862 74.352 37.7725C70.8297 36.6349 66.9909 36 62.98 36C58.9761 36 55.1523 36.635 51.6394 37.7655C50.0029 35.9795 45.5935 32 38.74 32H38.3254L38.0324 32.2934C37.122 33.205 36.5985 34.4327 36.3119 35.7291C36.0241 37.0309 35.9589 38.4743 36.0215 39.9027C36.1356 42.5086 36.6808 45.1844 37.2063 47.1003C33.9313 50.9476 31.972 55.5131 31.972 60.28C31.972 65.9331 33.979 70.8987 38.1121 74.6486C41.7751 77.9721 47.0405 80.2807 53.8931 81.3359Z" fill="black" stroke="white" stroke-width="2"/>
</svg>
